# xmcd
#
# Track frame offsets:
#   150
#   18576
#   35746
#   47558
#   64314
#   82373
#   96863
#   111389
#   127835
#   142707
#   158800
#   174108
#   186763
#   201428
#   217119
#   238443
#   252280
#   268576
#   282083
#   300600
#   313928
#   327558
#
# Disc length: 4582 seconds
#
# Revision: 0
# Processed by: cddbd v1.5.1PL0 Copyright (c) Steve Scherf et al.
# Submitted via: Media_Universe 3.0
#
DISCID=5011e416
DTITLE=Trisha Yearwood - Trisha Yearwood/Thinkin About You/Mixed
DYEAR=1900
DGENRE=Country
TTITLE0=Shes In Love With The Boy
TTITLE1=The Woman Before Me
TTITLE2=Thats What I Like About You
TTITLE3=Like We Never Had A Broken Heart
TTITLE4=Fools Like Me
TTITLE5=Victim Of The Game
TTITLE6=When Goodbye Was A Word
TTITLE7=The Whisper Of Your Heart
TTITLE8=You Done Me Wrong (and that aint right)
TTITLE9=Lonesome Dove
TTITLE10=Thinkin About You
TTITLE11=Xxx's And Ooo's (an american girl)
TTITLE12=You Can Sleep While I Drive
TTITLE13=The Restless Kind
TTITLE14=On A Bus To St. Cloud
TTITLE15=Those Words We Said
TTITLE16=O Mexico
TTITLE17=I Wanna Go Too Far
TTITLE18=Till I Get It Right
TTITLE19=To Make You Feel My Love
TTITLE20=Something Stupid
TTITLE21=In Anothers Eyes
EXTD=
EXTT0=
EXTT1=
EXTT2=
EXTT3=
EXTT4=
EXTT5=
EXTT6=
EXTT7=
EXTT8=
EXTT9=
EXTT10=
EXTT11=
EXTT12=
EXTT13=
EXTT14=
EXTT15=
EXTT16=
EXTT17=
EXTT18=
EXTT19=
EXTT20=
EXTT21=
PLAYORDER=
